<svg width="24" height="24" viewBox="0 0 24 24" fill="none" xmlns="http://www.w3.org/2000/svg">
  <path d="M12 21.35l-1.45-1.32C5.4 15.36 2 12.28 2 8.5 2 5.42 4.42 3 7.5 3c1.74 0 3.41.81 4.5 2.09C13.09 3.81 14.76 3 16.5 3 19.58 3 22 5.42 22 8.5c0 3.78-3.4 6.86-8.55 11.54L12 21.35z" stroke="#1976D2" stroke-width="2" fill="none"/>
  <path d="M12 6C10.9 6 10 6.9 10 8C10 9.1 10.9 10 12 10C13.1 10 14 9.1 14 8C14 6.9 13.1 6 12 6Z" fill="#42A5F5"/>
  <path d="M8 12C6.9 12 6 12.9 6 14C6 15.1 6.9 16 8 16C9.1 16 10 15.1 10 14C10 12.9 9.1 12 8 12Z" fill="#42A5F5"/>
  <path d="M16 12C14.9 12 14 12.9 14 14C14 15.1 14.9 16 16 16C17.1 16 18 15.1 18 14C18 12.9 17.1 12 16 12Z" fill="#42A5F5"/>
  <path d="M12 16C10.9 16 10 16.9 10 18C10 19.1 10.9 20 12 20C13.1 20 14 19.1 14 18C14 16.9 13.1 16 12 16Z" fill="#42A5F5"/>
</svg> 